<?xml version="1.0" encoding="UTF-8"?>
<!DOCTYPE svg PUBLIC "-//W3C//DTD SVG 1.1//EN" "http://www.w3.org/Graphics/SVG/1.1/DTD/svg11.dtd">
<svg xmlns="http://www.w3.org/2000/svg" version="1.1" width="509px" height="149px" style="shape-rendering:geometricPrecision; text-rendering:geometricPrecision; image-rendering:optimizeQuality; fill-rule:evenodd; clip-rule:evenodd" xmlns:xlink="http://www.w3.org/1999/xlink">
<g><path style="opacity:1" fill="#d1be62" d="M 171.5,3.5 C 178.989,2.34434 186.655,2.17767 194.5,3C 195.413,4.41391 195.413,5.91391 194.5,7.5C 194.167,7.5 193.833,7.5 193.5,7.5C 193.5,6.16667 193.5,4.83333 193.5,3.5C 186.167,3.5 178.833,3.5 171.5,3.5 Z"/></g>
<g><path style="opacity:1" fill="#d0be5d" d="M 244.5,7.5 C 244.67,6.17793 244.337,5.01127 243.5,4C 237.449,3.25404 231.449,3.42071 225.5,4.5C 225.611,3.88258 225.944,3.38258 226.5,3C 233.167,2.33333 239.833,2.33333 246.5,3C 247.167,4.85697 246.5,6.35697 244.5,7.5 Z"/></g>
<g><path style="opacity:1" fill="#dcc247" d="M 272.5,-0.5 C 275.167,-0.5 277.833,-0.5 280.5,-0.5C 279.246,8.93718 277.413,18.2705 275,27.5C 273.026,30.1183 271.193,29.9517 269.5,27C 268.167,26.3333 266.833,26.3333 265.5,27C 263.963,28.7073 262.296,30.2073 260.5,31.5C 262.224,29.0862 263.558,26.4196 264.5,23.5C 268.079,23.3163 271.413,23.983 274.5,25.5C 275.11,19.1153 276.11,12.782 277.5,6.5C 277.547,4.96227 276.88,3.96227 275.5,3.5C 268.617,4.96561 261.617,6.29894 254.5,7.5C 254.795,9.73535 254.461,11.7354 253.5,13.5C 252.315,12.1434 251.315,10.6434 250.5,9C 250.645,8.22797 250.978,7.5613 251.5,7C 258.712,4.76511 265.712,2.26511 272.5,-0.5 Z"/></g>
<g><path style="opacity:1" fill="#d8be4c" d="M 223.5,4.5 C 222.5,4.5 221.5,4.5 220.5,4.5C 213.825,4.33375 207.158,4.50042 200.5,5C 198.863,7.03385 196.863,8.53385 194.5,9.5C 194.5,8.83333 194.5,8.16667 194.5,7.5C 195.836,5.69325 197.503,4.19325 199.5,3C 203.5,2.83333 207.5,2.66667 211.5,2.5C 215.893,2.5093 219.893,3.17596 223.5,4.5 Z"/></g>
<g><path style="opacity:1" fill="#efc618" d="M 220.5,4.5 C 221.077,7.54975 219.91,9.54975 217,10.5C 216.667,12.5 216.333,14.5 216,16.5C 214.513,17.1552 213.347,18.1552 212.5,19.5C 205.532,20.497 198.532,20.8303 191.5,20.5C 191.278,17.6097 191.945,14.943 193.5,12.5C 193.376,11.8933 193.043,11.56 192.5,11.5C 192.5,11.1667 192.5,10.8333 192.5,10.5C 193.167,10.5 193.5,10.1667 193.5,9.5C 193.833,9.5 194.167,9.5 194.5,9.5C 196.863,8.53385 198.863,7.03385 200.5,5C 207.158,4.50042 213.825,4.33375 220.5,4.5 Z"/></g>
<g><path style="opacity:1" fill="#ddbe36" d="M 244.5,7.5 C 244.5,7.83333 244.5,8.16667 244.5,8.5C 244.5,8.83333 244.5,9.16667 244.5,9.5C 242.551,8.8161 240.885,7.64944 239.5,6C 235.833,5.33333 232.167,5.33333 228.5,6C 228,6.5 227.5,7 227,7.5C 224.008,11.1152 222.008,15.1152 221,19.5C 225.401,20.4667 229.901,20.8 234.5,20.5C 228.802,22.0226 223.136,21.6893 217.5,19.5C 217.062,18.4937 216.396,18.4937 215.5,19.5C 207.03,21.3719 198.363,22.0386 189.5,21.5C 189.5,20.1667 189.5,18.8333 189.5,17.5C 190.441,15.9505 191.107,14.2838 191.5,12.5C 192.167,12.5 192.5,12.1667 192.5,11.5C 193.043,11.56 193.376,11.8933 193.5,12.5C 191.945,14.943 191.278,17.6097 191.5,20.5C 198.532,20.8303 205.532,20.497 212.5,19.5C 213.347,18.1552 214.513,17.1552 216,16.5C 216.333,14.5 216.667,12.5 217,10.5C 219.91,9.54975 221.077,7.54975 220.5,4.5C 221.5,4.5 222.5,4.5 223.5,4.5C 223.786,6.93268 224.452,6.93268 225.5,4.5C 231.449,3.42071 237.449,3.25404 243.5,4C 244.337,5.01127 244.67,6.17793 244.5,7.5 Z M 221.5,10.5 C 221.461,9.24382 221.961,8.24382 223,7.5C 223.585,8.99762 223.085,9.99762 221.5,10.5 Z"/></g>
<g><path style="opacity:1" fill="#efc714" d="M 244.5,9.5 C 245.511,11.4024 245.678,13.4024 245,15.5C 242.765,19.7001 239.265,21.3667 234.5,20.5C 229.901,20.8 225.401,20.4667 221,19.5C 222.008,15.1152 224.008,11.1152 227,7.5C 227.5,7 228,6.5 228.5,6C 232.167,5.33333 235.833,5.33333 239.5,6C 240.885,7.64944 242.551,8.8161 244.5,9.5 Z"/></g>
<g><path style="opacity:1" fill="#f2c712" d="M 275.5,3.5 C 275.146,5.54116 275.146,7.37449 275.5,9C 273.59,9.40826 272.59,10.5749 272.5,12.5C 272.852,15.7966 272.852,18.9633 272.5,22C 269.807,21.4981 267.14,21.6648 264.5,22.5C 263.833,21.8333 263.167,21.1667 262.5,20.5C 261.406,21.868 261.74,23.0347 263.5,24C 259.075,25.7034 256.741,28.87 256.5,33.5C 255.178,33.33 254.011,33.6634 253,34.5C 252.357,32.0698 250.857,30.4032 248.5,29.5C 248.849,27.0477 249.516,24.381 250.5,21.5C 252.2,19.7901 253.533,17.7901 254.5,15.5C 254.376,14.8933 254.043,14.56 253.5,14.5C 253.5,14.1667 253.5,13.8333 253.5,13.5C 254.461,11.7354 254.795,9.73535 254.5,7.5C 261.617,6.29894 268.617,4.96561 275.5,3.5 Z"/></g>
<g><path style="opacity:1" fill="#d2bd56" d="M 164.5,13.5 C 162.78,16.8892 162.113,20.5559 162.5,24.5C 160.833,24.5 159.167,24.5 157.5,24.5C 158.609,23.71 159.942,23.21 161.5,23C 159.305,19.1985 160.305,16.0319 164.5,13.5 Z"/></g>
<g><path style="opacity:1" fill="#d1c05c" d="M 189.5,17.5 C 189.5,18.8333 189.5,20.1667 189.5,21.5C 198.363,22.0386 207.03,21.3719 215.5,19.5C 215.586,20.4959 215.252,21.3292 214.5,22C 205.833,22.6667 197.167,22.6667 188.5,22C 188.167,21.6667 187.833,21.3333 187.5,21C 188.085,19.6976 188.751,18.531 189.5,17.5 Z"/></g>
<g><path style="opacity:1" fill="#d3bf51" d="M 244.5,8.5 C 246.693,9.19541 248.027,10.6954 248.5,13C 246.945,16.5609 244.612,19.5609 241.5,22C 233.833,22.6667 226.167,22.6667 218.5,22C 217.748,21.3292 217.414,20.4959 217.5,19.5C 223.136,21.6893 228.802,22.0226 234.5,20.5C 239.265,21.3667 242.765,19.7001 245,15.5C 245.678,13.4024 245.511,11.4024 244.5,9.5C 244.5,9.16667 244.5,8.83333 244.5,8.5 Z"/></g>
<g><path style="opacity:1" fill="#d4be4f" d="M 253.5,14.5 C 254.043,14.56 254.376,14.8933 254.5,15.5C 253.533,17.7901 252.2,19.7901 250.5,21.5C 247.833,23.8333 245.167,26.1667 242.5,28.5C 246.143,23.8521 249.81,19.1855 253.5,14.5 Z"/></g>
<g><path style="opacity:1" fill="#dcc03c" d="M 171.5,3.5 C 178.833,3.5 186.167,3.5 193.5,3.5C 193.5,4.83333 193.5,6.16667 193.5,7.5C 193.5,8.16667 193.5,8.83333 193.5,9.5C 192.833,9.5 192.5,9.83333 192.5,10.5C 192.5,10.8333 192.5,11.1667 192.5,11.5C 191.833,11.5 191.5,11.8333 191.5,12.5C 188.822,15.332 186.488,18.4987 184.5,22C 178.167,22.3333 171.833,22.6667 165.5,23C 170.75,23.1929 175.917,23.6929 181,24.5C 181.667,25.5 181.667,26.5 181,27.5C 179.391,30.4068 177.558,33.0734 175.5,35.5C 176.143,32.0473 177.476,28.8806 179.5,26C 179.167,25.5 178.833,25 178.5,24.5C 174.124,24.8477 169.624,24.8477 165,24.5C 163.699,24.6387 162.866,25.3054 162.5,26.5C 161.127,26.3433 159.793,26.51 158.5,27C 156.034,29.4786 153.701,31.9786 151.5,34.5C 153.075,30.9219 155.075,27.5886 157.5,24.5C 159.167,24.5 160.833,24.5 162.5,24.5C 162.113,20.5559 162.78,16.8892 164.5,13.5C 166.062,9.60822 168.395,6.27488 171.5,3.5 Z"/></g>
<g><path style="opacity:1" fill="#efc516" d="M 173.5,4.5 C 179.833,4.5 186.167,4.5 192.5,4.5C 192.643,6.26241 192.309,7.92908 191.5,9.5C 187.377,11.7843 184.71,15.1176 183.5,19.5C 176.527,19.7058 170.027,19.7058 164,19.5C 166.102,13.9937 169.269,8.99373 173.5,4.5 Z"/></g>
<g><path style="opacity:1" fill="#edc51b" d="M 275.5,3.5 C 276.88,3.96227 277.547,4.96227 277.5,6.5C 276.11,12.782 275.11,19.1153 274.5,25.5C 271.413,23.983 268.079,23.3163 264.5,23.5C 263.558,26.4196 262.224,29.0862 260.5,31.5C 259.5,32.8333 258.5,34.1667 257.5,35.5C 255.83,35.7512 254.33,36.4178 253,37.5C 249.214,42.0531 245.214,46.3865 241,50.5C 240.209,51.745 239.709,53.0783 239.5,54.5C 235.861,56.1387 233.195,58.8053 231.5,62.5C 231.5,62.8333 231.5,63.1667 231.5,63.5C 230.448,63.3505 229.448,63.5172 228.5,64C 226.699,66.0643 224.699,67.8977 222.5,69.5C 222.826,67.3393 223.826,65.5059 225.5,64C 223.333,63.1667 221.833,61.6667 221,59.5C 220.667,60.1667 220.333,60.8333 220,61.5C 218.855,60.3157 217.688,60.3157 216.5,61.5C 216.491,59.6916 216.991,58.0249 218,56.5C 220.127,54.8863 221.627,52.8863 222.5,50.5C 228.137,44.8688 234.137,39.5354 240.5,34.5C 242.086,32.8273 242.753,30.8273 242.5,28.5C 245.167,26.1667 247.833,23.8333 250.5,21.5C 249.516,24.381 248.849,27.0477 248.5,29.5C 250.857,30.4032 252.357,32.0698 253,34.5C 254.011,33.6634 255.178,33.33 256.5,33.5C 256.741,28.87 259.075,25.7034 263.5,24C 261.74,23.0347 261.406,21.868 262.5,20.5C 263.167,21.1667 263.833,21.8333 264.5,22.5C 267.14,21.6648 269.807,21.4981 272.5,22C 272.852,18.9633 272.852,15.7966 272.5,12.5C 272.59,10.5749 273.59,9.40826 275.5,9C 275.146,7.37449 275.146,5.54116 275.5,3.5 Z"/></g>
<g><path style="opacity:1" fill="#e5c32b" d="M 175.5,35.5 C 172.862,37.4179 171.195,40.0846 170.5,43.5C 162.586,44.4672 154.586,44.8005 146.5,44.5C 146.404,40.2687 148.07,36.9354 151.5,34.5C 150.465,37.2752 149.131,39.9419 147.5,42.5C 154.5,43.8333 161.5,43.8333 168.5,42.5C 170.387,39.1105 172.054,35.6105 173.5,32C 173.355,31.228 173.022,30.5613 172.5,30C 173.793,29.51 175.127,29.3433 176.5,29.5C 176.5,28.5 176.5,27.5 176.5,26.5C 171.833,26.5 167.167,26.5 162.5,26.5C 162.866,25.3054 163.699,24.6387 165,24.5C 169.624,24.8477 174.124,24.8477 178.5,24.5C 178.833,25 179.167,25.5 179.5,26C 177.476,28.8806 176.143,32.0473 175.5,35.5 Z"/></g>
<g><path style="opacity:1" fill="#ffffff" d="M 344.5,62.5 C 344.631,63.2389 344.464,63.9056 344,64.5C 343.102,61.9309 341.935,59.5976 340.5,57.5C 339.89,55.5659 338.89,53.8993 337.5,52.5C 334.361,46.6929 329.695,42.6929 323.5,40.5C 317.574,36.3476 310.907,34.3476 303.5,34.5C 296.623,34.693 289.957,34.693 283.5,34.5C 309.006,27.9399 328.839,35.6065 343,57.5C 343.608,59.1545 344.108,60.8211 344.5,62.5 Z"/></g>
<g><path style="opacity:1" fill="#d8bb43" d="M 242.5,28.5 C 242.753,30.8273 242.086,32.8273 240.5,34.5C 234.137,39.5354 228.137,44.8688 222.5,50.5C 228.702,42.779 235.368,35.4457 242.5,28.5 Z"/></g>
<g><path style="opacity:1" fill="#ffffff" d="M 3.5,35.5 C 4.83333,35.5 6.16667,35.5 7.5,35.5C 7.17556,62.5444 7.50889,89.5444 8.5,116.5C 25.4869,117.499 42.4869,117.833 59.5,117.5C 59.5,119.167 59.5,120.833 59.5,122.5C 40.1667,122.5 20.8333,122.5 1.5,122.5C 0.841397,93.1474 1.50806,64.1474 3.5,35.5 Z"/></g>
<g><path style="opacity:1" fill="#f1c714" d="M 162.5,26.5 C 167.167,26.5 171.833,26.5 176.5,26.5C 176.5,27.5 176.5,28.5 176.5,29.5C 175.127,29.3433 173.793,29.51 172.5,30C 173.022,30.5613 173.355,31.228 173.5,32C 172.054,35.6105 170.387,39.1105 168.5,42.5C 161.5,43.8333 154.5,43.8333 147.5,42.5C 149.131,39.9419 150.465,37.2752 151.5,34.5C 153.701,31.9786 156.034,29.4786 158.5,27C 159.793,26.51 161.127,26.3433 162.5,26.5 Z"/></g>
<g><path style="opacity:1" fill="#ffffff" d="M 283.5,34.5 C 289.957,34.693 296.623,34.693 303.5,34.5C 300.953,35.9987 298.286,37.4987 295.5,39C 300.798,40.1593 306.131,40.9926 311.5,41.5C 311.5,42.5 311.5,43.5 311.5,44.5C 304.177,43.7149 296.844,43.5482 289.5,44C 292.352,45.7083 294.352,47.5417 295.5,49.5C 293.17,49.8369 290.837,49.8369 288.5,49.5C 286.833,50.8333 285.167,52.1667 283.5,53.5C 282.904,52.2839 282.737,50.9506 283,49.5C 280.667,52.1506 278.833,51.9839 277.5,49C 277.905,48.0546 278.572,47.3879 279.5,47C 278.873,44.6566 277.873,42.4899 276.5,40.5C 274.309,41.8944 272.975,43.3944 272.5,45C 270.735,45.6397 269.068,45.4731 267.5,44.5C 269.139,43.5275 270.473,42.1942 271.5,40.5C 274.902,37.4654 278.902,35.4654 283.5,34.5 Z"/></g>
<g><path style="opacity:1" fill="#d9bd3a" d="M 218.5,45.5 C 214.119,45.6282 209.785,45.2949 205.5,44.5C 205.565,44.0618 205.399,43.7284 205,43.5C 204.667,44.1667 204.333,44.8333 204,45.5C 203.667,51.5 203.333,57.5 203,63.5C 202.617,64.056 202.117,64.3893 201.5,64.5C 200.833,65.8333 199.833,66.8333 198.5,67.5C 197.167,67.5 195.833,67.5 194.5,67.5C 194.666,61.8236 194.499,56.1569 194,50.5C 193.768,49.2625 193.268,48.2625 192.5,47.5C 192.5,46.8333 192.167,46.5 191.5,46.5C 185.212,45.9224 178.879,44.9224 172.5,43.5C 172.167,43.5 171.833,43.5 171.5,43.5C 171.167,43.5 170.833,43.5 170.5,43.5C 171.195,40.0846 172.862,37.4179 175.5,35.5C 175.123,37.258 174.456,38.9246 173.5,40.5C 173.846,41.6956 174.346,41.6956 175,40.5C 178.23,34.5259 182.063,29.0259 186.5,24C 194.5,23.3333 202.5,23.3333 210.5,24C 211.081,24.8926 211.415,25.8926 211.5,27C 210.782,29.2175 210.282,31.3841 210,33.5C 211.796,30.073 213.963,26.9063 216.5,24C 222.833,23.3333 229.167,23.3333 235.5,24C 237.767,25.0812 237.934,26.5812 236,28.5C 230.486,33.7138 225.319,39.2138 220.5,45C 219.906,45.4643 219.239,45.631 218.5,45.5 Z"/></g>
<g><path style="opacity:1" fill="#efc513" d="M 217.5,26.5 C 221.514,26.3345 225.514,26.5012 229.5,27C 230.308,27.3076 230.975,27.8076 231.5,28.5C 230.079,32.0389 227.745,34.7056 224.5,36.5C 221.646,42.9976 216.646,45.3309 209.5,43.5C 209.579,42.0695 209.246,40.7362 208.5,39.5C 209.325,38.6143 210.325,38.281 211.5,38.5C 211.343,37.1266 211.51,35.7932 212,34.5C 214.09,31.9783 215.924,29.3116 217.5,26.5 Z"/></g>
<g><path style="opacity:1" fill="#ffffff" d="M 303.5,34.5 C 310.907,34.3476 317.574,36.3476 323.5,40.5C 324.812,43.1451 326.812,45.1451 329.5,46.5C 328.34,46.4366 327.006,46.7699 325.5,47.5C 324.522,47.0233 323.689,46.3567 323,45.5C 323.135,47.4247 323.302,49.4247 323.5,51.5C 322.167,51.5 320.833,51.5 319.5,51.5C 319.64,49.8762 318.973,48.7096 317.5,48C 318.833,47.6667 320.167,47.3333 321.5,47C 317.329,44.9601 313.662,45.6267 310.5,49C 315.616,48.6422 318.949,50.8089 320.5,55.5C 317.581,56.2603 314.914,55.427 312.5,53C 312.833,52.6667 313.167,52.3333 313.5,52C 311.131,51.4641 309.131,50.2974 307.5,48.5C 305.866,48.968 304.7,49.968 304,51.5C 303.51,50.2068 303.343,48.8734 303.5,47.5C 300.779,47.9628 298.112,48.6295 295.5,49.5C 294.352,47.5417 292.352,45.7083 289.5,44C 296.844,43.5482 304.177,43.7149 311.5,44.5C 311.5,43.5 311.5,42.5 311.5,41.5C 306.131,40.9926 300.798,40.1593 295.5,39C 298.286,37.4987 300.953,35.9987 303.5,34.5 Z"/></g>
<g><path style="opacity:1" fill="#ddc75a" d="M 157.5,24.5 C 155.075,27.5886 153.075,30.9219 151.5,34.5C 148.07,36.9354 146.404,40.2687 146.5,44.5C 154.586,44.8005 162.586,44.4672 170.5,43.5C 170.833,43.5 171.167,43.5 171.5,43.5C 170.833,44.8333 169.833,45.8333 168.5,46.5C 160.684,45.5076 152.684,45.1743 144.5,45.5C 144.5,44.1667 144.5,42.8333 144.5,41.5C 147.746,34.9311 152.079,29.2644 157.5,24.5 Z"/></g>
<g><path style="opacity:1" fill="#edc61a" d="M 201.5,64.5 C 199.5,65.1667 197.5,65.8333 195.5,66.5C 195.666,59.825 195.5,53.1583 195,46.5C 193.745,45.7894 192.579,44.956 191.5,44C 186.467,43.829 181.467,43.329 176.5,42.5C 179.199,36.8587 182.533,31.692 186.5,27C 193.222,26.3307 200.056,26.4973 207,27.5C 206.362,31.415 205.695,35.415 205,39.5C 204.333,40.8333 203.333,41.8333 202,42.5C 201.5,49.8258 201.334,57.1591 201.5,64.5 Z"/></g>
<g><path style="opacity:1" fill="#cdbe72" d="M 144.5,41.5 C 144.5,42.8333 144.5,44.1667 144.5,45.5C 152.684,45.1743 160.684,45.5076 168.5,46.5C 160.16,46.6664 151.827,46.4997 143.5,46C 142.084,44.0849 142.418,42.5849 144.5,41.5 Z"/></g>
<g><path style="opacity:1" fill="#cfc069" d="M 172.5,43.5 C 178.879,44.9224 185.212,45.9224 191.5,46.5C 185.463,46.8293 179.463,46.4959 173.5,45.5C 173.137,44.8165 172.804,44.1499 172.5,43.5 Z"/></g>
<g><path style="opacity:1" fill="#cdb968" d="M 205.5,44.5 C 209.785,45.2949 214.119,45.6282 218.5,45.5C 214.689,46.6453 210.689,46.8119 206.5,46C 205.944,45.6174 205.611,45.1174 205.5,44.5 Z"/></g>
<g><path style="opacity:1" fill="#d2be5a" d="M 257.5,35.5 C 251.472,41.8597 245.472,48.193 239.5,54.5C 239.709,53.0783 240.209,51.745 241,50.5C 245.214,46.3865 249.214,42.0531 253,37.5C 254.33,36.4178 255.83,35.7512 257.5,35.5 Z"/></g>
<g><path style="opacity:1" fill="#ffffff" d="M 323.5,40.5 C 329.695,42.6929 334.361,46.6929 337.5,52.5C 336.684,54.1436 335.35,55.3103 333.5,56C 334.939,56.9906 335.939,58.324 336.5,60C 335.027,60.7096 334.36,61.8762 334.5,63.5C 333.5,63.5 332.5,63.5 331.5,63.5C 331.328,65.4918 331.995,67.1585 333.5,68.5C 332.585,69.3279 331.919,70.3279 331.5,71.5C 334.436,76.3742 334.103,81.0409 330.5,85.5C 329.914,85.2907 329.414,84.9574 329,84.5C 327.265,86.6112 325.432,88.6112 323.5,90.5C 324.582,90.7486 325.915,90.9152 327.5,91C 326.396,92.1313 326.729,92.9646 328.5,93.5C 329.935,91.5989 331.602,91.2655 333.5,92.5C 331.385,94.2991 329.218,95.9658 327,97.5C 326.026,95.1224 325.359,95.4557 325,98.5C 324.517,97.552 324.351,96.552 324.5,95.5C 322.784,95.6287 321.117,95.962 319.5,96.5C 323.896,89.8695 325.563,82.5362 324.5,74.5C 326.329,77.6774 326.662,81.0108 325.5,84.5C 326.56,85.3431 327.227,84.8431 327.5,83C 327.586,80.4331 327.253,77.7664 326.5,75C 327.009,73.8315 327.842,72.9981 329,72.5C 329.282,68.9984 329.449,65.6651 329.5,62.5C 328.687,61.1861 327.687,60.0195 326.5,59C 327.167,57.6667 328.167,56.6667 329.5,56C 328.833,55.6667 328.167,55.3333 327.5,55C 328.517,53.9505 328.684,52.7839 328,51.5C 325.931,52.2638 323.764,52.7638 321.5,53C 320.748,53.6708 320.414,54.5041 320.5,55.5C 318.949,50.8089 315.616,48.6422 310.5,49C 313.662,45.6267 317.329,44.9601 321.5,47C 320.167,47.3333 318.833,47.6667 317.5,48C 318.973,48.7096 319.64,49.8762 319.5,51.5C 320.833,51.5 322.167,51.5 323.5,51.5C 323.302,49.4247 323.135,47.4247 323,45.5C 323.689,46.3567 324.522,47.0233 325.5,47.5C 327.006,46.7699 328.34,46.4366 329.5,46.5C 326.812,45.1451 324.812,43.1451 323.5,40.5 Z"/></g>
<g><path style="opacity:1" fill="#212d3c" d="M 295.5,49.5 C 298.112,48.6295 300.779,47.9628 303.5,47.5C 303.343,48.8734 303.51,50.2068 304,51.5C 304.7,49.968 305.866,48.968 307.5,48.5C 309.131,50.2974 311.131,51.4641 313.5,52C 313.167,52.3333 312.833,52.6667 312.5,53C 314.914,55.427 317.581,56.2603 320.5,55.5C 320.414,54.5041 320.748,53.6708 321.5,53C 323.764,52.7638 325.931,52.2638 328,51.5C 328.684,52.7839 328.517,53.9505 327.5,55C 328.167,55.3333 328.833,55.6667 329.5,56C 328.167,56.6667 327.167,57.6667 326.5,59C 327.687,60.0195 328.687,61.1861 329.5,62.5C 329.449,65.6651 329.282,68.9984 329,72.5C 327.842,72.9981 327.009,73.8315 326.5,75C 327.253,77.7664 327.586,80.4331 327.5,83C 327.227,84.8431 326.56,85.3431 325.5,84.5C 326.662,81.0108 326.329,77.6774 324.5,74.5C 320.008,57.2582 309.008,50.0916 291.5,53C 292.094,53.4643 292.761,53.631 293.5,53.5C 292.791,54.404 291.791,54.7373 290.5,54.5C 285.559,54.7341 281.393,57.0675 278,61.5C 275.334,65.833 273.501,70.4996 272.5,75.5C 269.997,74.9155 267.497,74.2489 265,73.5C 264.228,73.6448 263.561,73.9781 263,74.5C 261.383,73.1487 260.216,71.482 259.5,69.5C 257.566,69.0995 256.066,68.0995 255,66.5C 254.221,69.0972 253.721,69.0972 253.5,66.5C 255.306,57.3576 259.973,50.0242 267.5,44.5C 269.068,45.4731 270.735,45.6397 272.5,45C 272.975,43.3944 274.309,41.8944 276.5,40.5C 277.873,42.4899 278.873,44.6566 279.5,47C 278.572,47.3879 277.905,48.0546 277.5,49C 278.833,51.9839 280.667,52.1506 283,49.5C 282.737,50.9506 282.904,52.2839 283.5,53.5C 285.167,52.1667 286.833,50.8333 288.5,49.5C 290.837,49.8369 293.17,49.8369 295.5,49.5 Z"/></g>
<g><path style="opacity:1" fill="#cdb855" d="M 239.5,54.5 C 237.167,57.5 234.5,60.1667 231.5,62.5C 233.195,58.8053 235.861,56.1387 239.5,54.5 Z"/></g>
<g><path style="opacity:1" fill="#ffffff" d="M 431.5,73.5 C 428.348,73.9529 425.848,72.9529 424,70.5C 423.682,72.0609 422.849,73.2276 421.5,74C 422.624,74.2492 423.624,74.7492 424.5,75.5C 422.838,77.9871 420.504,79.4871 417.5,80C 418.956,80.4226 419.456,81.2559 419,82.5C 417.53,83.2666 416.03,83.9332 414.5,84.5C 413.322,78.465 409.989,74.1317 404.5,71.5C 404.33,70.1779 404.663,69.0113 405.5,68C 404.069,67.5348 402.903,66.7014 402,65.5C 399.301,65.6638 396.468,65.8305 393.5,66C 392.747,67.487 391.914,67.6537 391,66.5C 388.987,69.1172 386.487,69.7839 383.5,68.5C 384.95,67.1502 385.617,65.4835 385.5,63.5C 388.657,63.1827 390.157,61.516 390,58.5C 388.67,59.5822 387.17,60.2488 385.5,60.5C 389.111,57.2322 393.445,55.3989 398.5,55C 411.595,53.6351 422.095,58.1351 430,68.5C 431.009,70.0249 431.509,71.6916 431.5,73.5 Z"/></g>
<g><path style="opacity:1" fill="#ffffff" d="M 362.5,54.5 C 369.167,54.5 375.833,54.5 382.5,54.5C 382.205,56.7354 382.539,58.7354 383.5,60.5C 384.167,60.5 384.833,60.5 385.5,60.5C 387.17,60.2488 388.67,59.5822 390,58.5C 390.157,61.516 388.657,63.1827 385.5,63.5C 385.617,65.4835 384.95,67.1502 383.5,68.5C 386.487,69.7839 388.987,69.1172 391,66.5C 391.914,67.6537 392.747,67.487 393.5,66C 396.468,65.8305 399.301,65.6638 402,65.5C 402.903,66.7014 404.069,67.5348 405.5,68C 404.663,69.0113 404.33,70.1779 404.5,71.5C 402.512,71.1729 400.512,70.8396 398.5,70.5C 393.277,71.456 388.277,72.956 383.5,75C 384.022,75.5613 384.355,76.228 384.5,77C 383.197,79.7435 382.197,82.5768 381.5,85.5C 380.698,86.9516 380.198,88.6183 380,90.5C 378.887,89.2396 378.72,88.073 379.5,87C 378.551,86.3828 377.718,86.5494 377,87.5C 376.845,85.144 376.845,82.8107 377,80.5C 375.685,82.3159 374.185,83.9825 372.5,85.5C 371.158,83.9951 369.492,83.3285 367.5,83.5C 367.649,82.448 367.483,81.448 367,80.5C 366.333,79.1667 365.667,79.1667 365,80.5C 365.073,74.8376 365.073,69.171 365,63.5C 364.667,65.1667 364.333,66.8333 364,68.5C 363.667,67.8333 363.333,67.1667 363,66.5C 362.722,67.4158 362.222,68.0825 361.5,68.5C 361.226,63.737 361.559,59.0704 362.5,54.5 Z"/></g>
<g><path style="opacity:1" fill="#ffffff" d="M -0.5,33.5 C 2.83333,33.5 6.16667,33.5 9.5,33.5C 9.5,34.5 9.5,35.5 9.5,36.5C 7.68345,34.49 5.68345,34.1566 3.5,35.5C 1.50806,64.1474 0.841397,93.1474 1.5,122.5C 0.661754,122.842 0.32842,123.508 0.5,124.5C 0.166667,124.5 -0.166667,124.5 -0.5,124.5C -0.5,94.1667 -0.5,63.8333 -0.5,33.5 Z"/></g>
<g><path style="opacity:1" fill="#ffffff" d="M 131.5,118.5 C 132.302,117.048 132.802,115.382 133,113.5C 133.498,116.482 133.665,119.482 133.5,122.5C 135.5,122.5 137.5,122.5 139.5,122.5C 139.5,100.5 139.5,78.5 139.5,56.5C 137.5,56.5 135.5,56.5 133.5,56.5C 133.667,69.8375 133.5,83.1708 133,96.5C 132.667,97.8333 132.333,99.1667 132,100.5C 131.536,99.9056 131.369,99.2389 131.5,98.5C 131.5,84.1667 131.5,69.8333 131.5,55.5C 134.833,55.5 138.167,55.5 141.5,55.5C 141.5,78.5 141.5,101.5 141.5,124.5C 138.482,124.665 135.482,124.498 132.5,124C 131.594,122.301 131.261,120.467 131.5,118.5 Z"/></g>
<g><path style="opacity:1" fill="#cbb85c" d="M 192.5,47.5 C 193.268,48.2625 193.768,49.2625 194,50.5C 194.499,56.1569 194.666,61.8236 194.5,67.5C 195.833,67.5 197.167,67.5 198.5,67.5C 197.357,69.4999 195.857,70.1666 194,69.5C 193.058,62.1937 192.558,54.8604 192.5,47.5 Z"/></g>
<g><path style="opacity:1" fill="#ffffff" d="M 159.5,55.5 C 164.844,55.334 170.177,55.5006 175.5,56C 180.884,61.9288 186.384,67.7622 192,73.5C 192.667,74.5 192.667,75.5 192,76.5C 189.609,79.5968 186.776,81.7635 183.5,83C 176.968,76.8025 170.801,70.3025 165,63.5C 162.92,60.9348 161.087,58.2682 159.5,55.5 Z"/></g>
<g><path style="opacity:1" fill="#d5bd4f" d="M 222.5,50.5 C 221.627,52.8863 220.127,54.8863 218,56.5C 216.991,58.0249 216.491,59.6916 216.5,61.5C 210.871,65.794 205.537,70.4607 200.5,75.5C 207.095,66.5678 214.429,58.2344 222.5,50.5 Z"/></g>
<g><path style="opacity:1" fill="#ffffff" d="M 501.5,88.5 C 497.424,86.3637 493.09,85.0303 488.5,84.5C 482.575,83.0803 476.575,81.9137 470.5,81C 467.156,79.106 465.822,76.2727 466.5,72.5C 468.964,70.6012 471.631,69.2679 474.5,68.5C 482.632,68.132 490.298,69.7986 497.5,73.5C 500.03,69.7737 502.03,65.7737 503.5,61.5C 502.811,59.6473 501.478,58.4807 499.5,58C 496.568,57.0467 493.568,56.5467 490.5,56.5C 487.435,55.1816 484.269,55.1816 481,56.5C 479.209,54.4873 477.875,54.4873 477,56.5C 469.513,54.6096 462.68,55.943 456.5,60.5C 451.776,62.5756 448.942,66.2423 448,71.5C 445.4,81.7189 448.9,88.8856 458.5,93C 465.775,95.0542 473.108,96.7209 480.5,98C 479.944,98.3826 479.611,98.8826 479.5,99.5C 469.161,98.3332 459.495,95.1665 450.5,90C 442.773,77.5654 444.773,66.8987 456.5,58C 472.965,51.7635 489.298,52.0968 505.5,59C 504.092,64.6746 501.592,70.1746 498,75.5C 488.967,70.5231 479.467,69.3565 469.5,72C 468.018,74.5918 468.352,76.9251 470.5,79C 477.446,80.6114 484.446,81.9447 491.5,83C 495.346,84.0859 498.68,85.9193 501.5,88.5 Z"/></g>
<g><path style="opacity:1" fill="#222b3d" d="M 490.5,56.5 C 491.589,58.1171 493.256,58.9504 495.5,59C 493.27,60.8571 490.103,62.0238 486,62.5C 481.167,60.2125 476.501,59.8792 472,61.5C 471.667,60.8333 471.333,60.1667 471,59.5C 470.3,61.032 469.134,62.032 467.5,62.5C 467.511,61.5585 467.011,60.8919 466,60.5C 464.349,61.7424 462.515,62.5757 460.5,63C 465.698,64.8735 465.365,66.2068 459.5,67C 460.634,68.016 460.301,68.6827 458.5,69C 460.259,69.7975 461.926,69.6309 463.5,68.5C 464.829,65.3055 466.495,64.9722 468.5,67.5C 470.768,63.989 472.768,64.3223 474.5,68.5C 471.631,69.2679 468.964,70.6012 466.5,72.5C 465.761,72.631 465.094,72.4643 464.5,72C 465.696,71.3457 465.696,70.8457 464.5,70.5C 462.833,71.3333 461.167,72.1667 459.5,73C 464.911,74.2438 465.911,76.5772 462.5,80C 464.007,80.8373 464.507,82.0039 464,83.5C 463.15,82.5761 462.15,82.5761 461,83.5C 460.05,82.9777 459.216,82.311 458.5,81.5C 457.864,83.7946 456.531,85.4613 454.5,86.5C 451.535,84.373 451.869,83.2063 455.5,83C 453.106,80.3385 453.106,77.5052 455.5,74.5C 454.311,73.5713 452.978,73.238 451.5,73.5C 451.67,72.1779 451.337,71.0113 450.5,70C 451.833,69.6667 453.167,69.3333 454.5,69C 453.587,65.8833 454.254,63.05 456.5,60.5C 462.68,55.943 469.513,54.6096 477,56.5C 477.875,54.4873 479.209,54.4873 481,56.5C 484.269,55.1816 487.435,55.1816 490.5,56.5 Z"/></g>
<g><path style="opacity:1" fill="#ffffff" d="M 490.5,56.5 C 493.568,56.5467 496.568,57.0467 499.5,58C 501.478,58.4807 502.811,59.6473 503.5,61.5C 502.03,65.7737 500.03,69.7737 497.5,73.5C 490.298,69.7986 482.632,68.132 474.5,68.5C 472.768,64.3223 470.768,63.989 468.5,67.5C 466.495,64.9722 464.829,65.3055 463.5,68.5C 461.926,69.6309 460.259,69.7975 458.5,69C 460.301,68.6827 460.634,68.016 459.5,67C 465.365,66.2068 465.698,64.8735 460.5,63C 462.515,62.5757 464.349,61.7424 466,60.5C 467.011,60.8919 467.511,61.5585 467.5,62.5C 469.134,62.032 470.3,61.032 471,59.5C 471.333,60.1667 471.667,60.8333 472,61.5C 476.501,59.8792 481.167,60.2125 486,62.5C 490.103,62.0238 493.27,60.8571 495.5,59C 493.256,58.9504 491.589,58.1171 490.5,56.5 Z"/></g>
<g><path style="opacity:1" fill="#ffffff" d="M 163.5,57.5 C 167.514,57.3345 171.514,57.5012 175.5,58C 180.217,63.262 185.051,68.4287 190,73.5C 189.912,76.6422 188.412,79.1422 185.5,81C 184.833,81.6667 184.167,81.6667 183.5,81C 178.032,74.5311 172.199,68.3644 166,62.5C 164.906,60.9221 164.072,59.2554 163.5,57.5 Z"/></g>
<g><path style="opacity:1" fill="#d3ba4b" d="M 231.5,63.5 C 224.173,72.1594 216.507,80.4928 208.5,88.5C 207.833,88.5 207.167,88.5 206.5,88.5C 211.627,81.859 216.96,75.5256 222.5,69.5C 224.699,67.8977 226.699,66.0643 228.5,64C 229.448,63.5172 230.448,63.3505 231.5,63.5 Z"/></g>
<g><path style="opacity:1" fill="#eec518" d="M 222.5,69.5 C 216.96,75.5256 211.627,81.859 206.5,88.5C 204.883,91.7843 202.55,94.4509 199.5,96.5C 195.162,98.9792 191.829,102.479 189.5,107C 186.832,108.289 184.165,109.456 181.5,110.5C 181.313,112.564 180.813,114.564 180,116.5C 175.399,122.029 169.565,123.695 162.5,121.5C 166.88,116.129 171.213,110.795 175.5,105.5C 176.904,103.745 177.904,101.745 178.5,99.5C 180.716,98.7974 182.549,97.4641 184,95.5C 189.781,89.5638 194.948,83.2305 199.5,76.5C 199.5,75.8333 199.833,75.5 200.5,75.5C 205.537,70.4607 210.871,65.794 216.5,61.5C 217.688,60.3157 218.855,60.3157 220,61.5C 220.333,60.8333 220.667,60.1667 221,59.5C 221.833,61.6667 223.333,63.1667 225.5,64C 223.826,65.5059 222.826,67.3393 222.5,69.5 Z"/></g>
<g><path style="opacity:1" fill="#ffffff" d="M 431.5,73.5 C 434.455,78.4877 435.788,83.9877 435.5,90C 435.838,100.259 432.171,109.259 424.5,117C 421.514,118.557 418.514,120.224 415.5,122C 412.937,123.079 410.271,123.579 407.5,123.5C 402.9,124.076 398.734,123.076 395,120.5C 394.228,120.645 393.561,120.978 393,121.5C 391.923,119.295 391.257,117.295 391,115.5C 390.692,116.308 390.192,116.975 389.5,117.5C 387.971,115.684 386.304,115.017 384.5,115.5C 385.124,115.083 385.457,114.416 385.5,113.5C 384.54,111.523 383.54,109.523 382.5,107.5C 384.015,105.735 384.682,103.735 384.5,101.5C 397.565,112.026 407.732,109.693 415,94.5C 415.659,91.1119 415.492,87.7786 414.5,84.5C 416.03,83.9332 417.53,83.2666 419,82.5C 419.456,81.2559 418.956,80.4226 417.5,80C 420.504,79.4871 422.838,77.9871 424.5,75.5C 423.624,74.7492 422.624,74.2492 421.5,74C 422.849,73.2276 423.682,72.0609 424,70.5C 425.848,72.9529 428.348,73.9529 431.5,73.5 Z"/></g>
<g><path style="opacity:1" fill="#ffffff" d="M 456.5,60.5 C 454.254,63.05 453.587,65.8833 454.5,69C 453.167,69.3333 451.833,69.6667 450.5,70C 451.337,71.0113 451.67,72.1779 451.5,73.5C 452.978,73.238 454.311,73.5713 455.5,74.5C 453.106,77.5052 453.106,80.3385 455.5,83C 451.869,83.2063 451.535,84.373 454.5,86.5C 456.531,85.4613 457.864,83.7946 458.5,81.5C 459.216,82.311 460.05,82.9777 461,83.5C 462.15,82.5761 463.15,82.5761 464,83.5C 464.507,82.0039 464.007,80.8373 462.5,80C 465.911,76.5772 464.911,74.2438 459.5,73C 461.167,72.1667 462.833,71.3333 464.5,70.5C 465.696,70.8457 465.696,71.3457 464.5,72C 465.094,72.4643 465.761,72.631 466.5,72.5C 465.822,76.2727 467.156,79.106 470.5,81C 476.575,81.9137 482.575,83.0803 488.5,84.5C 488.611,85.1174 488.944,85.6174 489.5,86C 487.888,86.7203 486.388,86.5536 485,85.5C 485.556,89.3335 483.889,90.3335 480,88.5C 479.506,90.1341 479.34,91.8008 479.5,93.5C 482.167,94.3655 484.833,95.3655 487.5,96.5C 486.284,97.0959 484.951,97.2626 483.5,97C 484.056,97.3826 484.389,97.8826 484.5,98.5C 483.209,98.2627 482.209,98.596 481.5,99.5C 480.833,99.5 480.167,99.5 479.5,99.5C 479.611,98.8826 479.944,98.3826 480.5,98C 473.108,96.7209 465.775,95.0542 458.5,93C 448.9,88.8856 445.4,81.7189 448,71.5C 448.942,66.2423 451.776,62.5756 456.5,60.5 Z"/></g>
<g><path style="opacity:1" fill="#11151d" d="M 324.5,74.5 C 325.563,82.5362 323.896,89.8695 319.5,96.5C 318.542,96.9528 317.708,97.6195 317,98.5C 316.601,98.2716 316.435,97.9382 316.5,97.5C 322.133,89.7785 323.966,81.1119 322,71.5C 317.318,58.0013 307.818,52.0013 293.5,53.5C 292.761,53.631 292.094,53.4643 291.5,53C 309.008,50.0916 320.008,57.2582 324.5,74.5 Z"/></g>
<g><path style="opacity:1" fill="#ffffff" d="M 79.5,55.5 C 82.1667,55.5 84.8333,55.5 87.5,55.5C 87.3334,70.1705 87.5001,84.8371 88,99.5C 88.9514,106.945 92.7847,112.278 99.5,115.5C 98.2789,116.465 96.9456,116.298 95.5,115C 90.7475,111.586 87.5809,107.086 86,101.5C 85.5001,86.8371 85.3334,72.1705 85.5,57.5C 83.5,57.5 81.5,57.5 79.5,57.5C 79.5,56.8333 79.5,56.1667 79.5,55.5 Z"/></g>
<g><path style="opacity:1" fill="#dbc25c" d="M 199.5,76.5 C 194.948,83.2305 189.781,89.5638 184,95.5C 182.549,97.4641 180.716,98.7974 178.5,99.5C 185.159,91.5079 192.159,83.8412 199.5,76.5 Z"/></g>
<g><path style="opacity:1" fill="#ffffff" d="M 340.5,57.5 C 341.935,59.5976 343.102,61.9309 344,64.5C 344.464,63.9056 344.631,63.2389 344.5,62.5C 345.404,63.209 345.737,64.209 345.5,65.5C 345.546,73.2828 345.379,81.2828 345,89.5C 342.773,101.313 336.607,110.313 326.5,116.5C 326.316,113.827 325.149,113.16 323,114.5C 322.251,113.365 322.417,112.365 323.5,111.5C 325.064,112.186 326.731,112.019 328.5,111C 327.5,110.667 326.5,110.333 325.5,110C 327.473,108.027 329.473,106.027 331.5,104C 329.5,104 327.5,104 325.5,104C 327.925,102.355 330.592,101.189 333.5,100.5C 334.953,98.3561 334.62,96.5227 332.5,95C 333.967,93.9025 334.801,92.4025 335,90.5C 336.667,92.1667 338.333,93.8333 340,95.5C 342.572,92.2869 344.072,88.6203 344.5,84.5C 344.24,82.3825 343.24,80.7158 341.5,79.5C 339.043,81.0009 339.043,82.6676 341.5,84.5C 339.305,85.7691 337.139,85.7691 335,84.5C 334.502,81.1832 334.335,77.8499 334.5,74.5C 335.552,74.6495 336.552,74.4828 337.5,74C 334.014,72.9082 333.681,71.0749 336.5,68.5C 335.355,67.109 335.355,65.7757 336.5,64.5C 337.609,65.5896 338.609,65.5896 339.5,64.5C 336.638,63.6941 336.138,62.3607 338,60.5C 338.893,61.7112 339.726,61.7112 340.5,60.5C 339.347,59.3132 339.347,58.3132 340.5,57.5 Z"/></g>
<g><path style="opacity:1" fill="#ffffff" d="M 393.5,124.5 C 398.146,124.556 402.813,124.223 407.5,123.5C 410.271,123.579 412.937,123.079 415.5,122C 418.514,120.224 421.514,118.557 424.5,117C 432.171,109.259 435.838,100.259 435.5,90C 435.788,83.9877 434.455,78.4877 431.5,73.5C 431.509,71.6916 431.009,70.0249 430,68.5C 422.095,58.1351 411.595,53.6351 398.5,55C 393.445,55.3989 389.111,57.2322 385.5,60.5C 384.833,60.5 384.167,60.5 383.5,60.5C 386.253,56.9386 389.92,54.7719 394.5,54C 424.059,51.8911 438.226,65.7244 437,95.5C 431.631,118.773 417.131,128.439 393.5,124.5 Z"/></g>
<g><path style="opacity:1" fill="#ffffff" d="M 488.5,84.5 C 493.09,85.0303 497.424,86.3637 501.5,88.5C 511.682,105.32 507.349,116.82 488.5,123C 482.046,124.611 475.713,124.778 469.5,123.5C 472.85,123.665 476.183,123.498 479.5,123C 478.663,121.989 478.33,120.822 478.5,119.5C 481.5,119.5 484.5,119.5 487.5,119.5C 487.5,118.167 487.5,116.833 487.5,115.5C 486.448,115.351 485.448,115.517 484.5,116C 485.888,116.889 485.722,117.389 484,117.5C 481.354,116.323 478.688,116.323 476,117.5C 475.167,117.167 474.333,116.833 473.5,116.5C 474.833,115.5 474.833,114.5 473.5,113.5C 474.025,112.808 474.692,112.308 475.5,112C 474.207,111.51 472.873,111.343 471.5,111.5C 471.719,112.675 471.386,113.675 470.5,114.5C 469.289,113.726 469.289,112.893 470.5,112C 469.975,111.308 469.308,110.808 468.5,110.5C 465.564,110.97 462.564,111.803 459.5,113C 459.833,112.667 460.167,112.333 460.5,112C 459.167,111.667 457.833,111.333 456.5,111C 457.267,109.53 457.933,108.03 458.5,106.5C 465.509,109.501 472.843,110.668 480.5,110C 488.032,108.117 489.365,104.283 484.5,98.5C 484.389,97.8826 484.056,97.3826 483.5,97C 484.951,97.2626 486.284,97.0959 487.5,96.5C 484.833,95.3655 482.167,94.3655 479.5,93.5C 479.34,91.8008 479.506,90.1341 480,88.5C 483.889,90.3335 485.556,89.3335 485,85.5C 486.388,86.5536 487.888,86.7203 489.5,86C 488.944,85.6174 488.611,85.1174 488.5,84.5 Z"/></g>
<g><path style="opacity:1" fill="#ffffff" d="M 381.5,85.5 C 380.93,91.1817 381.93,96.515 384.5,101.5C 384.682,103.735 384.015,105.735 382.5,107.5C 383.54,109.523 384.54,111.523 385.5,113.5C 385.457,114.416 385.124,115.083 384.5,115.5C 384.082,114.778 383.416,114.278 382.5,114C 384.301,113.683 384.634,113.016 383.5,112C 381.527,111.505 379.527,111.338 377.5,111.5C 376.833,104.833 376.167,104.833 375.5,111.5C 372.635,111.945 370.135,111.278 368,109.5C 367.586,109.957 367.086,110.291 366.5,110.5C 365.548,108.955 365.215,107.288 365.5,105.5C 364.448,105.649 363.448,105.483 362.5,105C 364.347,102.421 364.847,99.5876 364,96.5C 363.329,95.7476 362.496,95.4142 361.5,95.5C 361.5,86.5 361.5,77.5 361.5,68.5C 362.222,68.0825 362.722,67.4158 363,66.5C 363.333,67.1667 363.667,67.8333 364,68.5C 364.333,66.8333 364.667,65.1667 365,63.5C 365.073,69.171 365.073,74.8376 365,80.5C 365.667,79.1667 366.333,79.1667 367,80.5C 367.483,81.448 367.649,82.448 367.5,83.5C 369.492,83.3285 371.158,83.9951 372.5,85.5C 374.185,83.9825 375.685,82.3159 377,80.5C 376.845,82.8107 376.845,85.144 377,87.5C 377.718,86.5494 378.551,86.3828 379.5,87C 378.72,88.073 378.887,89.2396 380,90.5C 380.198,88.6183 380.698,86.9516 381.5,85.5 Z"/></g>
<g><path style="opacity:1" fill="#ffffff" d="M 206.5,88.5 C 207.167,88.5 207.833,88.5 208.5,88.5C 208.5,88.8333 208.5,89.1667 208.5,89.5C 207.662,89.8417 207.328,90.5084 207.5,91.5C 204.757,93.2393 202.757,95.5726 201.5,98.5C 200.833,98.5 200.167,98.5 199.5,98.5C 199.5,97.8333 199.5,97.1667 199.5,96.5C 202.55,94.4509 204.883,91.7843 206.5,88.5 Z"/></g>
<g><path style="opacity:1" fill="#212c3d" d="M 337.5,52.5 C 338.89,53.8993 339.89,55.5659 340.5,57.5C 339.347,58.3132 339.347,59.3132 340.5,60.5C 339.726,61.7112 338.893,61.7112 338,60.5C 336.138,62.3607 336.638,63.6941 339.5,64.5C 338.609,65.5896 337.609,65.5896 336.5,64.5C 335.355,65.7757 335.355,67.109 336.5,68.5C 333.681,71.0749 334.014,72.9082 337.5,74C 336.552,74.4828 335.552,74.6495 334.5,74.5C 334.335,77.8499 334.502,81.1832 335,84.5C 337.139,85.7691 339.305,85.7691 341.5,84.5C 339.043,82.6676 339.043,81.0009 341.5,79.5C 343.24,80.7158 344.24,82.3825 344.5,84.5C 344.072,88.6203 342.572,92.2869 340,95.5C 338.333,93.8333 336.667,92.1667 335,90.5C 334.801,92.4025 333.967,93.9025 332.5,95C 334.62,96.5227 334.953,98.3561 333.5,100.5C 330.592,101.189 327.925,102.355 325.5,104C 327.5,104 329.5,104 331.5,104C 329.473,106.027 327.473,108.027 325.5,110C 326.5,110.333 327.5,110.667 328.5,111C 326.731,112.019 325.064,112.186 323.5,111.5C 322.417,112.365 322.251,113.365 323,114.5C 325.149,113.16 326.316,113.827 326.5,116.5C 315.487,123.637 303.821,125.97 291.5,123.5C 287.476,122.519 283.642,120.853 280,118.5C 279.086,119.654 278.253,119.487 277.5,118C 279.686,117.396 279.852,116.23 278,114.5C 277,115.5 276,116.5 275,117.5C 274.126,114.997 274.793,112.997 277,111.5C 277.333,112.167 277.667,112.833 278,113.5C 278.667,112.167 279.333,110.833 280,109.5C 281.177,113.268 282.344,113.101 283.5,109C 282.707,107.915 282.04,106.748 281.5,105.5C 282.274,104.289 283.107,104.289 284,105.5C 284.251,107.433 284.751,109.266 285.5,111C 284.112,111.889 284.278,112.389 286,112.5C 289.986,111.349 293.652,111.349 297,112.5C 297.333,111.833 297.667,111.167 298,110.5C 299.398,111.051 300.732,111.384 302,111.5C 302.667,110.833 303.333,110.167 304,109.5C 303.923,110.738 304.089,111.738 304.5,112.5C 307.19,110.449 308.857,107.783 309.5,104.5C 311.305,103.763 312.971,102.763 314.5,101.5C 315.773,100.743 315.773,100.077 314.5,99.5C 314.833,98.5 315.5,97.8333 316.5,97.5C 316.435,97.9382 316.601,98.2716 317,98.5C 317.708,97.6195 318.542,96.9528 319.5,96.5C 321.117,95.962 322.784,95.6287 324.5,95.5C 324.351,96.552 324.517,97.552 325,98.5C 325.359,95.4557 326.026,95.1224 327,97.5C 329.218,95.9658 331.385,94.2991 333.5,92.5C 331.602,91.2655 329.935,91.5989 328.5,93.5C 326.729,92.9646 326.396,92.1313 327.5,91C 325.915,90.9152 324.582,90.7486 323.5,90.5C 325.432,88.6112 327.265,86.6112 329,84.5C 329.414,84.9574 329.914,85.2907 330.5,85.5C 334.103,81.0409 334.436,76.3742 331.5,71.5C 331.919,70.3279 332.585,69.3279 333.5,68.5C 331.995,67.1585 331.328,65.4918 331.5,63.5C 332.5,63.5 333.5,63.5 334.5,63.5C 334.36,61.8762 335.027,60.7096 336.5,60C 335.939,58.324 334.939,56.9906 333.5,56C 335.35,55.3103 336.684,54.1436 337.5,52.5 Z"/></g>
<g><path style="opacity:1" fill="#ffffff" d="M 131.5,118.5 C 131.5,117.5 131.5,116.5 131.5,115.5C 131.5,114.5 131.5,113.5 131.5,112.5C 131.631,111.761 131.464,111.094 131,110.5C 126.828,110.995 123.328,112.828 120.5,116C 113.9,118.693 107.234,119.026 100.5,117C 101.094,116.536 101.761,116.369 102.5,116.5C 117.411,118.538 127.078,112.538 131.5,98.5C 131.369,99.2389 131.536,99.9056 132,100.5C 132.333,99.1667 132.667,97.8333 133,96.5C 133.5,83.1708 133.667,69.8375 133.5,56.5C 135.5,56.5 137.5,56.5 139.5,56.5C 139.5,78.5 139.5,100.5 139.5,122.5C 137.5,122.5 135.5,122.5 133.5,122.5C 133.665,119.482 133.498,116.482 133,113.5C 132.802,115.382 132.302,117.048 131.5,118.5 Z"/></g>
<g><path style="opacity:1" fill="#ffffff" d="M 290.5,54.5 C 277.413,60.6742 272.246,71.0075 275,85.5C 280.688,102.594 292.188,108.428 309.5,103C 311.323,102.003 312.99,100.836 314.5,99.5C 315.773,100.077 315.773,100.743 314.5,101.5C 312.971,102.763 311.305,103.763 309.5,104.5C 287.937,109.882 275.604,101.549 272.5,79.5C 272.5,78.1667 272.5,76.8333 272.5,75.5C 273.501,70.4996 275.334,65.833 278,61.5C 281.393,57.0675 285.559,54.7341 290.5,54.5 Z"/></g>
<g><path style="opacity:1" fill="#ffffff" d="M 404.5,71.5 C 409.989,74.1317 413.322,78.465 414.5,84.5C 415.492,87.7786 415.659,91.1119 415,94.5C 407.732,109.693 397.565,112.026 384.5,101.5C 381.93,96.515 380.93,91.1817 381.5,85.5C 382.197,82.5768 383.197,79.7435 384.5,77C 384.355,76.228 384.022,75.5613 383.5,75C 388.277,72.956 393.277,71.456 398.5,70.5C 400.512,70.8396 402.512,71.1729 404.5,71.5 Z M 393.5,72.5 C 406.471,71.1497 413.138,76.9831 413.5,90C 411.427,104.729 403.427,109.396 389.5,104C 382.107,96.3654 380.94,87.8654 386,78.5C 388.114,75.8792 390.614,73.8792 393.5,72.5 Z"/></g>
<g><path style="opacity:1" fill="#ffffff" d="M 199.5,98.5 C 200.167,98.5 200.833,98.5 201.5,98.5C 207.94,104.599 213.606,111.265 218.5,118.5C 212.194,111.86 205.861,105.193 199.5,98.5 Z"/></g>
<g><path style="opacity:1" fill="#dcc971" d="M 178.5,99.5 C 177.904,101.745 176.904,103.745 175.5,105.5C 168.52,110.456 163.52,116.79 160.5,124.5C 165.032,124.182 169.366,124.515 173.5,125.5C 168.821,125.666 164.155,125.499 159.5,125C 158.692,124.692 158.025,124.192 157.5,123.5C 163.806,114.863 170.806,106.863 178.5,99.5 Z"/></g>
<g><path style="opacity:1" fill="#ffffff" d="M 362.5,54.5 C 361.559,59.0704 361.226,63.737 361.5,68.5C 361.5,77.5 361.5,86.5 361.5,95.5C 361.5,103.167 361.5,110.833 361.5,118.5C 361.666,126.507 361.5,134.507 361,142.5C 360.832,116.33 360.332,90.3301 359.5,64.5C 359.5,61.1667 359.5,57.8333 359.5,54.5C 360.5,54.5 361.5,54.5 362.5,54.5 Z"/></g>
<g><path style="opacity:1" fill="#dcc140" d="M 199.5,96.5 C 199.5,97.1667 199.5,97.8333 199.5,98.5C 190.833,107.5 182.167,116.5 173.5,125.5C 169.366,124.515 165.032,124.182 160.5,124.5C 163.52,116.79 168.52,110.456 175.5,105.5C 171.213,110.795 166.88,116.129 162.5,121.5C 169.565,123.695 175.399,122.029 180,116.5C 180.813,114.564 181.313,112.564 181.5,110.5C 184.165,109.456 186.832,108.289 189.5,107C 191.829,102.479 195.162,98.9792 199.5,96.5 Z"/></g>
<g><path style="opacity:1" fill="#ffffff" d="M 207.5,91.5 C 217.336,101.171 226.669,111.337 235.5,122C 231.378,122.425 227.045,122.425 222.5,122C 221.295,120.624 219.962,119.458 218.5,118.5C 213.606,111.265 207.94,104.599 201.5,98.5C 202.757,95.5726 204.757,93.2393 207.5,91.5 Z"/></g>
<g><path style="opacity:1" fill="#ffffff" d="M 208.5,89.5 C 218.996,100.831 229.33,112.331 239.5,124C 233.833,124.667 228.167,124.667 222.5,124C 220.536,122.549 219.203,120.716 218.5,118.5C 219.962,119.458 221.295,120.624 222.5,122C 227.045,122.425 231.378,122.425 235.5,122C 226.669,111.337 217.336,101.171 207.5,91.5C 207.328,90.5084 207.662,89.8417 208.5,89.5 Z"/></g>
<g><path style="opacity:1" fill="#ffffff" d="M 359.5,64.5 C 360.332,90.3301 360.832,116.33 361,142.5C 361.5,134.507 361.666,126.507 361.5,118.5C 362.5,118.5 363.5,118.5 364.5,118.5C 364.225,123.22 365.059,123.554 367,119.5C 367.667,122.167 368.333,122.167 369,119.5C 369.333,120.833 369.667,122.167 370,123.5C 371.299,120.245 372.965,117.245 375,114.5C 375.772,115.849 376.939,116.682 378.5,117C 376.11,119.783 376.443,121.449 379.5,122C 376.456,122.359 376.122,123.026 378.5,124C 376.146,125.378 376.146,126.878 378.5,128.5C 378.263,131.063 377.763,131.063 377,128.5C 376.667,129.5 376.333,130.5 376,131.5C 375.667,127.833 375.333,124.167 375,120.5C 374,121.5 373,122.5 372,123.5C 372.046,125.313 371.88,126.979 371.5,128.5C 373.806,130.959 374.973,133.959 375,137.5C 377.287,135.946 379.454,134.279 381.5,132.5C 381.5,137.833 381.5,143.167 381.5,148.5C 374.167,148.5 366.833,148.5 359.5,148.5C 359.5,120.5 359.5,92.5 359.5,64.5 Z"/></g>
<g><path style="opacity:1" fill="#2c323b" d="M 10.5,115.5 C 27.5,115.5 44.5,115.5 61.5,115.5C 61.81,118.713 61.4767,121.713 60.5,124.5C 60.5,121.833 60.5,119.167 60.5,116.5C 43.6583,116.83 26.9916,116.497 10.5,115.5 Z"/></g>
<g><path style="opacity:1" fill="#ffffff" d="M 3.5,35.5 C 5.68345,34.1566 7.68345,34.49 9.5,36.5C 9.16884,63.0053 9.50217,89.3386 10.5,115.5C 26.9916,116.497 43.6583,116.83 60.5,116.5C 60.5,119.167 60.5,121.833 60.5,124.5C 40.5,124.5 20.5,124.5 0.5,124.5C 0.32842,123.508 0.661754,122.842 1.5,122.5C 20.8333,122.5 40.1667,122.5 59.5,122.5C 59.5,120.833 59.5,119.167 59.5,117.5C 42.4869,117.833 25.4869,117.499 8.5,116.5C 7.50889,89.5444 7.17556,62.5444 7.5,35.5C 6.16667,35.5 4.83333,35.5 3.5,35.5 Z"/></g>
<g><path style="opacity:1" fill="#ffffff" d="M 79.5,55.5 C 79.5,56.1667 79.5,56.8333 79.5,57.5C 79.3334,72.1705 79.5001,86.8371 80,101.5C 82.7439,116.735 91.9105,124.068 107.5,123.5C 117.594,124.116 125.594,120.449 131.5,112.5C 131.5,113.5 131.5,114.5 131.5,115.5C 118.312,126.962 103.978,128.462 88.5,120C 81.9273,114.354 78.4273,107.188 78,98.5C 77.8333,91.3333 77.6667,84.1667 77.5,77C 77.5028,69.4675 78.1694,62.3008 79.5,55.5 Z"/></g>
<g><path style="opacity:1" fill="#263141" d="M 79.5,57.5 C 81.5,57.5 83.5,57.5 85.5,57.5C 85.3334,72.1705 85.5001,86.8371 86,101.5C 87.5809,107.086 90.7475,111.586 95.5,115C 96.9456,116.298 98.2789,116.465 99.5,115.5C 100.791,115.263 101.791,115.596 102.5,116.5C 101.761,116.369 101.094,116.536 100.5,117C 107.234,119.026 113.9,118.693 120.5,116C 123.328,112.828 126.828,110.995 131,110.5C 131.464,111.094 131.631,111.761 131.5,112.5C 125.594,120.449 117.594,124.116 107.5,123.5C 91.9105,124.068 82.7439,116.735 80,101.5C 79.5001,86.8371 79.3334,72.1705 79.5,57.5 Z"/></g>
<g><path style="opacity:1" fill="#ffffff" d="M 501.5,88.5 C 502.496,88.4142 503.329,88.7476 504,89.5C 505.795,92.0993 507.295,94.7659 508.5,97.5C 508.5,101.167 508.5,104.833 508.5,108.5C 501.446,121.198 490.446,126.864 475.5,125.5C 463.924,126.242 453.258,123.575 443.5,117.5C 446.093,111.977 448.927,106.643 452,101.5C 462.65,108.542 473.817,109.875 485.5,105.5C 486.342,102.301 485.009,100.301 481.5,99.5C 482.209,98.596 483.209,98.2627 484.5,98.5C 489.365,104.283 488.032,108.117 480.5,110C 472.843,110.668 465.509,109.501 458.5,106.5C 456.429,104.9 454.095,104.4 451.5,105C 449.5,109 447.5,113 445.5,117C 452.874,121.344 460.874,123.511 469.5,123.5C 475.713,124.778 482.046,124.611 488.5,123C 507.349,116.82 511.682,105.32 501.5,88.5 Z"/></g>
<g><path style="opacity:1" fill="#22303d" d="M 458.5,106.5 C 457.933,108.03 457.267,109.53 456.5,111C 457.833,111.333 459.167,111.667 460.5,112C 460.167,112.333 459.833,112.667 459.5,113C 462.564,111.803 465.564,110.97 468.5,110.5C 469.308,110.808 469.975,111.308 470.5,112C 469.289,112.893 469.289,113.726 470.5,114.5C 471.386,113.675 471.719,112.675 471.5,111.5C 472.873,111.343 474.207,111.51 475.5,112C 474.692,112.308 474.025,112.808 473.5,113.5C 474.833,114.5 474.833,115.5 473.5,116.5C 474.333,116.833 475.167,117.167 476,117.5C 478.688,116.323 481.354,116.323 484,117.5C 485.722,117.389 485.888,116.889 484.5,116C 485.448,115.517 486.448,115.351 487.5,115.5C 487.5,116.833 487.5,118.167 487.5,119.5C 484.5,119.5 481.5,119.5 478.5,119.5C 478.33,120.822 478.663,121.989 479.5,123C 476.183,123.498 472.85,123.665 469.5,123.5C 460.874,123.511 452.874,121.344 445.5,117C 447.5,113 449.5,109 451.5,105C 454.095,104.4 456.429,104.9 458.5,106.5 Z"/></g>
<g><path style="opacity:1" fill="#ffffff" d="M 361.5,95.5 C 362.496,95.4142 363.329,95.7476 364,96.5C 364.847,99.5876 364.347,102.421 362.5,105C 363.448,105.483 364.448,105.649 365.5,105.5C 365.215,107.288 365.548,108.955 366.5,110.5C 367.086,110.291 367.586,109.957 368,109.5C 370.135,111.278 372.635,111.945 375.5,111.5C 376.167,104.833 376.833,104.833 377.5,111.5C 379.527,111.338 381.527,111.505 383.5,112C 384.634,113.016 384.301,113.683 382.5,114C 383.416,114.278 384.082,114.778 384.5,115.5C 386.304,115.017 387.971,115.684 389.5,117.5C 390.192,116.975 390.692,116.308 391,115.5C 391.257,117.295 391.923,119.295 393,121.5C 393.561,120.978 394.228,120.645 395,120.5C 398.734,123.076 402.9,124.076 407.5,123.5C 402.813,124.223 398.146,124.556 393.5,124.5C 392.508,124.672 391.842,124.338 391.5,123.5C 391.938,123.565 392.272,123.399 392.5,123C 388.726,121.698 385.559,119.531 383,116.5C 381.554,121.645 381.054,126.979 381.5,132.5C 379.454,134.279 377.287,135.946 375,137.5C 374.973,133.959 373.806,130.959 371.5,128.5C 371.88,126.979 372.046,125.313 372,123.5C 373,122.5 374,121.5 375,120.5C 375.333,124.167 375.667,127.833 376,131.5C 376.333,130.5 376.667,129.5 377,128.5C 377.763,131.063 378.263,131.063 378.5,128.5C 376.146,126.878 376.146,125.378 378.5,124C 376.122,123.026 376.456,122.359 379.5,122C 376.443,121.449 376.11,119.783 378.5,117C 376.939,116.682 375.772,115.849 375,114.5C 372.965,117.245 371.299,120.245 370,123.5C 369.667,122.167 369.333,120.833 369,119.5C 368.333,122.167 367.667,122.167 367,119.5C 365.059,123.554 364.225,123.22 364.5,118.5C 363.5,118.5 362.5,118.5 361.5,118.5C 361.5,110.833 361.5,103.167 361.5,95.5 Z"/></g>
<g><path style="opacity:1" fill="#0f121a" d="M 271.5,40.5 C 270.473,42.1942 269.139,43.5275 267.5,44.5C 259.973,50.0242 255.306,57.3576 253.5,66.5C 248.634,83.035 251.967,97.7017 263.5,110.5C 271.083,118.373 280.417,122.706 291.5,123.5C 303.821,125.97 315.487,123.637 326.5,116.5C 336.607,110.313 342.773,101.313 345,89.5C 345.379,81.2828 345.546,73.2828 345.5,65.5C 351.914,93.8382 341.58,113.338 314.5,124C 294.132,129.283 276.298,124.783 261,110.5C 246.466,91.0095 245.8,71.0095 259,50.5C 262.484,46.1689 266.651,42.8356 271.5,40.5 Z"/></g>
<g><path style="opacity:1" fill="#ffffff" d="M 272.5,79.5 C 275.604,101.549 287.937,109.882 309.5,104.5C 308.857,107.783 307.19,110.449 304.5,112.5C 304.089,111.738 303.923,110.738 304,109.5C 303.333,110.167 302.667,110.833 302,111.5C 300.732,111.384 299.398,111.051 298,110.5C 297.667,111.167 297.333,111.833 297,112.5C 293.652,111.349 289.986,111.349 286,112.5C 284.278,112.389 284.112,111.889 285.5,111C 284.751,109.266 284.251,107.433 284,105.5C 283.107,104.289 282.274,104.289 281.5,105.5C 282.04,106.748 282.707,107.915 283.5,109C 282.344,113.101 281.177,113.268 280,109.5C 279.333,110.833 278.667,112.167 278,113.5C 277.667,112.833 277.333,112.167 277,111.5C 274.793,112.997 274.126,114.997 275,117.5C 276,116.5 277,115.5 278,114.5C 279.852,116.23 279.686,117.396 277.5,118C 278.253,119.487 279.086,119.654 280,118.5C 283.642,120.853 287.476,122.519 291.5,123.5C 280.417,122.706 271.083,118.373 263.5,110.5C 263.727,105.393 263.727,100.393 263.5,95.5C 262.5,95.5 261.5,95.5 260.5,95.5C 260.797,85.791 261.63,85.4577 263,94.5C 265.069,93.7362 267.236,93.2362 269.5,93C 268.833,92.3333 268.167,91.6667 267.5,91C 269.904,90.8045 271.571,89.6378 272.5,87.5C 271.224,84.6969 271.224,82.0303 272.5,79.5 Z"/></g>
<g><path style="opacity:1" fill="#ffffff" d="M 253.5,66.5 C 253.721,69.0972 254.221,69.0972 255,66.5C 256.066,68.0995 257.566,69.0995 259.5,69.5C 260.216,71.482 261.383,73.1487 263,74.5C 263.561,73.9781 264.228,73.6448 265,73.5C 267.497,74.2489 269.997,74.9155 272.5,75.5C 272.5,76.8333 272.5,78.1667 272.5,79.5C 271.224,82.0303 271.224,84.6969 272.5,87.5C 271.571,89.6378 269.904,90.8045 267.5,91C 268.167,91.6667 268.833,92.3333 269.5,93C 267.236,93.2362 265.069,93.7362 263,94.5C 261.63,85.4577 260.797,85.791 260.5,95.5C 261.5,95.5 262.5,95.5 263.5,95.5C 263.727,100.393 263.727,105.393 263.5,110.5C 251.967,97.7017 248.634,83.035 253.5,66.5 Z"/></g>
<g><path style="opacity:1" fill="#ffffff" d="M 391.5,123.5 C 388.146,122.739 385.313,121.072 383,118.5C 382.587,128.279 382.42,138.279 382.5,148.5C 382.167,148.5 381.833,148.5 381.5,148.5C 381.5,143.167 381.5,137.833 381.5,132.5C 381.054,126.979 381.554,121.645 383,116.5C 385.559,119.531 388.726,121.698 392.5,123C 392.272,123.399 391.938,123.565 391.5,123.5 Z"/></g>
</svg>

